<svg xmlns="http://www.w3.org/2000/svg" xmlns:xlink="http://www.w3.org/1999/xlink" version="1.1" x="0px" y="0px" viewBox="0 0 60 75" enable-background="new 0 0 60 60" xml:space="preserve"><path fill="#a290fc" d="M50.73,26H34V9.27C34,6.92,32.08,5,29.73,5H9.27C6.92,5,5,6.92,5,9.27v20.46C5,32.08,6.92,34,9.27,34H26v16.73  c0,2.35,1.92,4.27,4.27,4.27h20.46c2.36,0,4.27-1.92,4.27-4.27V30.27C55,27.92,53.08,26,50.73,26z M9.27,32C8.02,32,7,30.98,7,29.73  V9.27C7,8.02,8.02,7,9.27,7h20.46C30.98,7,32,8.02,32,9.27V26h-1.73C27.92,26,26,27.92,26,30.27V32H9.27z M53,50.73  c0,1.25-1.02,2.27-2.27,2.27H30.27C29.02,53,28,51.98,28,50.73V30.27c0-1.25,1.02-2.27,2.27-2.27h20.46c1.25,0,2.27,1.02,2.27,2.27  V50.73z"/><path fill="#a290fc" d="M25.22,24.69c-1.72-0.37-3.17-1.34-4.36-2.5c1.55-1.91,2.51-3.87,2.95-4.87h2.71c0.55,0,1-0.45,1-1s-0.45-1-1-1H20.5v-1.99  c0-0.55-0.45-1-1-1s-1,0.45-1,1v1.99h-6.01c-0.55,0-1,0.45-1,1s0.45,1,1,1h2.71c0.43,0.99,1.4,2.96,2.95,4.87  c-1.19,1.16-2.65,2.13-4.36,2.5c-0.54,0.12-0.88,0.65-0.76,1.19c0.1,0.47,0.52,0.79,0.98,0.79c0.07,0,0.14-0.01,0.21-0.02  c2.12-0.46,3.87-1.61,5.29-2.98c1.42,1.36,3.17,2.51,5.29,2.98c0.07,0.02,0.14,0.02,0.21,0.02c0.46,0,0.87-0.32,0.98-0.79  C26.1,25.34,25.76,24.81,25.22,24.69z M21.59,17.32c-0.45,0.9-1.14,2.13-2.09,3.35c-0.95-1.22-1.64-2.45-2.09-3.35H21.59z"/><path fill="#a290fc" d="M41.42,33.12c-0.16-0.37-0.52-0.61-0.92-0.61s-0.77,0.24-0.92,0.61l-4.06,9.69c0,0,0,0,0,0l-1.79,4.29  c-0.21,0.51,0.03,1.1,0.54,1.31c0.13,0.05,0.26,0.08,0.39,0.08c0.39,0,0.76-0.23,0.92-0.61l1.54-3.67h6.78l1.54,3.67  c0.21,0.51,0.8,0.75,1.31,0.54c0.51-0.21,0.75-0.8,0.54-1.31L41.42,33.12z M37.95,42.21l2.55-6.11l2.55,6.11H37.95z"/></svg>