<svg width="136" height="136" viewBox="0 0 136 136" fill="none" xmlns="http://www.w3.org/2000/svg">
<rect x="4" y="4" width="128" height="128" rx="64" fill="#0A66C2"/>
<rect x="4" y="4" width="128" height="128" rx="64" stroke="black" stroke-width="8"/>
<path d="M96.1279 35H39.8721C38.5799 35 37.3407 35.5133 36.427 36.427C35.5133 37.3407 35 38.5799 35 39.8721V96.1279C35 97.4201 35.5133 98.6593 36.427 99.573C37.3407 100.487 38.5799 101 39.8721 101H96.1279C97.4201 101 98.6593 100.487 99.573 99.573C100.487 98.6593 101 97.4201 101 96.1279V39.8721C101 38.5799 100.487 37.3407 99.573 36.427C98.6593 35.5133 97.4201 35 96.1279 35ZM54.6717 91.2237H44.7488V59.7042H54.6717V91.2237ZM49.7033 55.3363C48.5778 55.3299 47.4793 54.9903 46.5465 54.3602C45.6138 53.7302 44.8886 52.838 44.4624 51.7961C44.0363 50.7543 43.9283 49.6096 44.1521 48.5065C44.3759 47.4034 44.9215 46.3913 45.7199 45.5979C46.5184 44.8045 47.534 44.2655 48.6385 44.0488C49.7431 43.832 50.8871 43.9474 51.9261 44.3802C52.9652 44.813 53.8527 45.544 54.4768 46.4807C55.1008 47.4175 55.4334 48.5182 55.4325 49.6438C55.4431 50.3973 55.3019 51.1454 55.0173 51.8432C54.7327 52.5411 54.3104 53.1745 53.7758 53.7057C53.2412 54.2369 52.6051 54.655 51.9054 54.9352C51.2057 55.2153 50.4568 55.3517 49.7033 55.3363ZM91.2467 91.2513H81.3283V74.0317C81.3283 68.9533 79.1696 67.3858 76.3829 67.3858C73.4404 67.3858 70.5529 69.6042 70.5529 74.16V91.2513H60.63V59.7271H70.1725V64.095H70.3008C71.2588 62.1563 74.6138 58.8425 79.7333 58.8425C85.27 58.8425 91.2513 62.1288 91.2513 71.7538L91.2467 91.2513Z" fill="white"/>
</svg>
