<svg width="92" height="92" viewBox="0 0 92 92" fill="none" xmlns="http://www.w3.org/2000/svg">
<path d="M80.7186 27.5262C80.7541 28.3358 80.7541 29.1086 80.7541 29.9182C80.7896 54.4639 62.7558 82.8 29.7767 82.8C20.0498 82.8 10.5004 79.8928 2.29999 74.4464C3.71997 74.6304 5.13996 74.704 6.55994 74.704C14.6183 74.704 22.4638 71.9072 28.8182 66.7184C21.1503 66.5712 14.4053 61.3823 12.0624 53.8015C14.7603 54.3535 17.5293 54.2431 20.1563 53.4703C11.8139 51.7775 5.81445 44.1599 5.77895 35.2911C5.77895 35.2175 5.77895 35.1439 5.77895 35.0703C8.26392 36.5055 11.0684 37.3151 13.9084 37.3887C6.06294 31.9422 3.61347 21.0862 8.37042 12.5854C17.4938 24.2142 30.9127 31.243 45.3255 32.0158C43.87 25.5758 45.858 18.8046 50.5084 14.2414C57.7149 7.21257 69.0747 7.58057 75.8906 15.051C79.9021 14.2414 83.7716 12.6958 87.286 10.5246C85.937 14.8302 83.1326 18.4734 79.4051 20.7918C82.9551 20.3502 86.434 19.3566 89.7 17.8846C87.286 21.6382 84.233 24.8766 80.7186 27.5262Z" fill="#1D9BF0"/>
</svg>
